# xmcd
#
# Track frame offsets:
#	150
#	14550
#	28350
#	48600
#	70427
#	87902
#	106052
#	121355
#	137255
#	155555
#
# Disc length: 2316 seconds
#
# Revision: 2
# Processed by: cddbd v1.5.2PL0 Copyright (c) Steve Scherf et al.
# Submitted via: EasyCDDAExtractor 15.3.0.1
#
DISCID=87090a0a
DTITLE=Ana Barbara - Ay, Amor
DYEAR=1996
DGENRE=Latin
TTITLE0=Ya No Te Creo Nada
TTITLE1=Por Ti
TTITLE2=Cara De Angel
TTITLE3=No Ha Sido Facil
TTITLE4=Y Siempre
TTITLE5=Entre Ella Y Yo
TTITLE6=Si Me Vas A Abandonar
TTITLE7=Pedro
TTITLE8=No Llorare
TTITLE9=Ay, Amor
EXTD=
EXTT0=
EXTT1=
EXTT2=
EXTT3=
EXTT4=
EXTT5=
EXTT6=
EXTT7=
EXTT8=
EXTT9=
PLAYORDER=
